<svg width="15" height="4" viewBox="0 0 15 4" fill="none" xmlns="http://www.w3.org/2000/svg">
<path d="M6.7669 1.86678C6.7669 2.25338 7.0803 2.56678 7.4669 2.56678C7.8535 2.56678 8.1669 2.25338 8.1669 1.86678C8.1669 1.48018 7.8535 1.16678 7.4669 1.16678C7.0803 1.16678 6.7669 1.48018 6.7669 1.86678Z" fill="white" stroke="white" stroke-width="1.16667" stroke-linecap="round" stroke-linejoin="round"/>
<path d="M12.5999 1.86678C12.5999 2.25338 12.9133 2.56678 13.2999 2.56678C13.6865 2.56678 13.9999 2.25338 13.9999 1.86678C13.9999 1.48018 13.6865 1.16678 13.2999 1.16678C12.9133 1.16678 12.5999 1.48018 12.5999 1.86678Z" fill="white" stroke="white" stroke-width="1.16667" stroke-linecap="round" stroke-linejoin="round"/>
<path d="M0.933405 1.86678C0.933405 2.25338 1.24681 2.56678 1.6334 2.56678C2.02 2.56678 2.3334 2.25338 2.3334 1.86678C2.3334 1.48018 2.02 1.16678 1.6334 1.16678C1.24681 1.16678 0.933405 1.48018 0.933405 1.86678Z" fill="white" stroke="white" stroke-width="1.16667" stroke-linecap="round" stroke-linejoin="round"/>
</svg>
